<svg xmlns="http://www.w3.org/2000/svg" xmlns:xlink="http://www.w3.org/1999/xlink" width="60" height="42" viewBox="0 0 60 42">
    <defs>
        <path id="a" d="M0 .346h26.033v33.146H0z"/>
        <path id="c" d="M.48.662h8v18.142h-8z"/>
    </defs>
    <g fill="none" fill-rule="evenodd">
        <g transform="translate(0 .59)">
            <mask id="b" fill="#fff">
                <use xlink:href="#a"/>
            </mask>
            <path fill="#394A51" d="M15.318 15.664l7.93 2.107a.867.867 0 0 1 .607.596l2.178 7.465v4.766a2.893 2.893 0 0 1-2.893 2.894H5.787A5.788 5.788 0 0 1 0 27.705V6.133A5.788 5.788 0 0 1 5.787.346h14.46a5.787 5.787 0 0 1 5.786 5.787v1.872h-15.48a2.892 2.892 0 0 0-2.893 2.893v14.147c0 .48.388.869.867.869h5.923c.48 0 .868-.39.868-.87v-9.38z" mask="url(#b)"/>
        </g>
        <path fill="#8DA6AD" d="M28.485 8.594H10.552a2.894 2.894 0 0 0-2.893 2.894v14.147c0 .478.389.867.868.867h5.923c.48 0 .868-.389.868-.867v-9.382h9.847c.48 0 .869.39.869.869v14.065a2.893 2.893 0 0 1-2.894 2.894H7.659v1.872a5.787 5.787 0 0 0 5.787 5.787h15.039a5.786 5.786 0 0 0 5.786-5.786V14.381a5.787 5.787 0 0 0-5.786-5.787m0 .58a5.214 5.214 0 0 1 5.207 5.207v21.573a5.214 5.214 0 0 1-5.207 5.208H13.446a5.214 5.214 0 0 1-5.207-5.209V34.66l14.9-.001a3.475 3.475 0 0 0 3.473-3.472V17.122c0-.798-.649-1.447-1.447-1.447H14.739V25.635a.29.29 0 0 1-.289.288H8.527a.288.288 0 0 1-.288-.288V11.488a2.317 2.317 0 0 1 2.313-2.315h17.933"/>
        <path fill="#8DA6AD" d="M13.446 41.162h15.039a5.214 5.214 0 0 0 5.207-5.208V14.381a5.214 5.214 0 0 0-5.207-5.208H10.552a2.317 2.317 0 0 0-2.314 2.314v14.147c0 .16.13.29.289.29h5.923a.29.29 0 0 0 .29-.29V15.675H25.164c.798 0 1.446.648 1.446 1.447v14.065a3.475 3.475 0 0 1-3.471 3.472H8.238v1.294a5.214 5.214 0 0 0 5.208 5.209"/>
        
        
        
    </g>
</svg>